==========================================
==========================================

PLEASE SEED MY TORRENTS AFTER DOWNLOADING 
THEM, AT LEAST UNTIL THE RATIO REACHES 1.000...

This encourages me to upload more torrents...

==========================================
==========================================


~*~*~*~*~*~Brick 2005 DVD Rip (Shy_Rage)~*~*~*~*~*~


MOVIE INFO: - 


IMDB Ratings: - 7.5/10

IMDB ID: - http://www.imdb.com/title/tt0393109/


PLOT: - A teenage loner pushes his way into the underworld of a high school crime ring to investigate the disappearance of his ex-girlfriend.


Director: Rian Johnson

Writer: Rian Johnson



CAST: -

Joseph Gordon-Levitt	 ...	Brendan

Nora Zehetner    	 ...	Laura

Lukas Haas	         ...	The Pin

Noah Fleiss	         ...	Tugger

Matt O'Leary     	 ...	The Brain

Emilie de Ravin  	 ...	Emily (as Emilie De Ravin)

Noah Segan	         ...	Dode

Richard Roundtree        ...	Assistant V.P. Trueman

Meagan Good	         ...	Kara


~*~*~*~*~*~*~*~*~*~*~*~*~*~*~*~*~*~*~*~*~*~*~*~




=========================================

*****************************************

=========================================

General

Complete name                    : Brick.mp4
Format                           : MPEG-4
Format profile                   : Apple audio with iTunes info
Codec ID                         : M4A 
File size                        : 700 MiB
Duration                         : 1h 42mn
Overall bit rate                 : 954 Kbps



Video

ID                               : 2
Format                           : AVC
Format/Info                      : Advanced Video Codec
Format profile                   : Main@L4.1
Format settings, CABAC           : Yes
Format settings, ReFrames        : 5 frames
Codec ID                         : avc1
Codec ID/Info                    : Advanced Video Coding
Duration                         : 1h 42mn
Bit rate                         : 877 Kbps
Maximum bit rate                 : 7 300 Kbps
Width                            : 704 pixels
Height                           : 400 pixels
Display aspect ratio             : 16:9
Frame rate mode                  : Constant
Frame rate                       : 25.000 fps
Color space                      : YUV
Chroma subsampling               : 4:2:0
Bit depth                        : 8 bits
Scan type                        : Progressive
Bits/(Pixel*Frame)               : 0.125
Stream size                      : 644 MiB (92%)
Writing library                  : x264 core 59


Audio

ID                               : 1
Format                           : AAC
Format/Info                      : Advanced Audio Codec
Format profile                   : LC
Codec ID                         : 40
Duration                         : 1h 42mn
Bit rate mode                    : Variable
Bit rate                         : 72.0 Kbps
Maximum bit rate                 : 93.2 Kbps
Channel(s)                       : 2 channels
Channel positions                : Front: L R
Sampling rate                    : 44.1 KHz
Compression mode                 : Lossy
Stream size                      : 53.8 MiB (8%)

=========================================

*****************************************

=========================================


Please Seed and Rate My Torrents!! Thanks :)